<?xml version="1.0" encoding="UTF-8"?>
<svg version="1.1" xmlns="http://www.w3.org/2000/svg" width="269" height="262">
<path d="M0 0 C5.49378338 4.97056592 7.83766592 10.11676397 8.625 17.375 C8.625 22.30092224 7.83136635 26.52736038 4.625 30.375 C0.58446014 33.32122698 -2.58057663 34.53801352 -7.5 35.3125 C-13.49217444 36.25863281 -18.71340159 38.30350757 -24.32226562 40.55957031 C-35.55053971 45.01989803 -46.78460296 49.1899418 -58.5625 51.9375 C-65.87068562 53.64312424 -72.76994116 55.84080371 -79.77636719 58.51904297 C-89.85493058 62.36208016 -100.11070756 65.66319053 -110.35253906 69.04052734 C-114.87387392 70.53647203 -119.38586184 72.05991424 -123.8984375 73.58203125 C-126.35307361 74.40789881 -128.80786616 75.23329942 -131.26272583 76.0585022 C-132.86875985 76.59930442 -134.47429768 77.14158261 -136.07931519 77.68539429 C-138.33924611 78.45071824 -140.60103501 79.210302 -142.86328125 79.96875 C-143.53406708 80.1975032 -144.20485291 80.42625641 -144.89596558 80.66194153 C-148.70206442 81.93111462 -152.4007392 82.82592702 -156.375 83.375 C-156.375 84.035 -156.375 84.695 -156.375 85.375 C-155.385 85.045 -154.395 84.715 -153.375 84.375 C-151.31072377 84.27914804 -149.24343906 84.24434879 -147.17694092 84.24128723 C-145.87873917 84.23702225 -144.58053741 84.23275726 -143.24299622 84.22836304 C-141.80099484 84.22871257 -140.35899349 84.22917411 -138.91699219 84.22973633 C-137.40083229 84.22674466 -135.88467315 84.22334211 -134.36851501 84.21955872 C-130.24644923 84.21071361 -126.12440419 84.20838034 -122.00232983 84.20774293 C-118.56065725 84.20679373 -115.11898952 84.20311516 -111.67731881 84.19957083 C-103.55489625 84.19142372 -95.43248477 84.18898677 -87.31005859 84.18969727 C-78.93553543 84.19029759 -70.56107677 84.17975538 -62.18656993 84.1639536 C-54.99494904 84.15086806 -47.80334921 84.14551382 -40.61171651 84.14615268 C-36.31738218 84.14640744 -32.02310512 84.1435684 -27.72878265 84.13297462 C-23.68718495 84.12327703 -19.64569906 84.12322585 -15.60409737 84.13049126 C-14.12348072 84.13153515 -12.64285706 84.12918579 -11.16225243 84.1231308 C-9.1351804 84.11538033 -7.1080701 84.12126877 -5.08099365 84.12776184 C-3.94831936 84.12721707 -2.81564507 84.12667231 -1.64864731 84.12611103 C3.57107229 84.52295605 7.47798963 85.40253468 11.5 88.8125 C15.0937043 93.1460846 14.83839641 97.30219661 14.875 102.6875 C14.9059375 103.80801758 14.9059375 103.80801758 14.9375 104.95117188 C14.9718827 109.84640835 14.28832919 113.11496617 11.625 117.375 C9.01570749 119.82121173 8.25468776 120.375 4.625 120.375 C4.62868717 120.93453621 4.63237434 121.49407242 4.63617325 122.07056427 C4.72465785 135.70937097 4.79051867 149.34812712 4.83224869 162.98715973 C4.85310871 169.58302011 4.88139817 176.17867306 4.92675781 182.77441406 C4.97027093 189.14161718 4.99414904 195.50862096 5.00450897 201.8759613 C5.01189043 204.30320879 5.02630467 206.73044557 5.04792023 209.15760803 C5.0770258 212.56169064 5.08095286 215.96495327 5.07910156 219.36914062 C5.10067322 220.86886917 5.10067322 220.86886917 5.12268066 222.39889526 C5.08279531 229.19233594 3.9522831 234.78643962 -0.78704453 239.89792633 C-6.15485676 244.65563818 -11.00384134 245.67314637 -17.98371887 245.64242554 C-18.74188721 245.64695665 -19.50005555 245.65148776 -20.28119868 245.65615618 C-22.81749223 245.66879963 -25.35357103 245.66717986 -27.88989258 245.66552734 C-29.71014176 245.67151265 -31.53038841 245.67831821 -33.35063171 245.68588257 C-38.2928775 245.70355008 -43.23505403 245.70823828 -48.17732835 245.70951414 C-51.26613666 245.71093594 -54.35492737 245.71520609 -57.44373131 245.72050858 C-68.22267143 245.73901173 -79.0015621 245.74717888 -89.78051758 245.74560547 C-99.82288273 245.74440417 -109.86503292 245.76550346 -119.90734369 245.7970928 C-128.53341075 245.82325872 -137.15940762 245.83397262 -145.78551406 245.83269465 C-150.93560097 245.83218509 -156.08549687 245.8378652 -161.2355442 245.85905075 C-166.08079507 245.87843825 -170.92567281 245.87855404 -175.77093697 245.86401749 C-177.54623714 245.86192889 -179.3215607 245.86663332 -181.09682083 245.8787384 C-183.52675956 245.89423047 -185.95541802 245.88485767 -188.3853302 245.86947632 C-189.08233325 245.87976344 -189.77933631 245.89005057 -190.49746066 245.90064943 C-196.70467803 245.81424626 -201.92443437 243.67211465 -206.43359375 239.4453125 C-206.88863281 238.80335938 -207.34367187 238.16140625 -207.8125 237.5 C-208.28558594 236.86320313 -208.75867188 236.22640625 -209.24609375 235.5703125 C-212.17242958 229.87965252 -211.51142306 223.10638752 -211.48852539 216.87158203 C-211.48867142 215.82707382 -211.48881744 214.78256561 -211.4889679 213.70640564 C-211.48827305 210.26518656 -211.48050066 206.82402208 -211.47265625 203.3828125 C-211.47079055 200.99242177 -211.46936736 198.60203065 -211.46836853 196.2116394 C-211.46455532 189.92837463 -211.45473522 183.64513306 -211.44366455 177.36187744 C-211.43342473 170.94698399 -211.4288654 164.53208677 -211.42382812 158.1171875 C-211.41311189 145.53644845 -211.39624277 132.95572546 -211.375 120.375 C-211.99181641 120.24319336 -212.60863281 120.11138672 -213.24414062 119.97558594 C-216.27088556 119.1224933 -217.41821139 117.82900539 -219.375 115.375 C-220.36234605 112.92959642 -221.16063049 110.64553425 -221.875 108.125 C-222.0814917 107.42624756 -222.2879834 106.72749512 -222.50073242 106.00756836 C-223.14337481 103.8013684 -223.76191826 101.58958156 -224.375 99.375 C-224.57689941 98.66037598 -224.77879883 97.94575195 -224.98681641 97.20947266 C-230.27739144 78.2996815 -230.27739144 78.2996815 -227.4453125 72.45703125 C-221.296928 63.92569299 -208.45536248 61.62232909 -198.875 58.8125 C-188.58266595 55.71490116 -178.37479893 52.42373543 -168.1875 49 C-152.33559937 43.6789331 -136.45517543 38.44800848 -120.5625 33.25 C-119.36471924 32.858125 -118.16693848 32.46625 -116.93286133 32.0625 C-102.35743543 27.29512317 -87.77357064 22.55604015 -73.17114258 17.87207031 C-61.6615777 14.16902795 -50.19590542 10.33534497 -38.7355957 6.48291016 C-32.22451596 4.29676083 -25.70746485 2.13026966 -19.16015625 0.0546875 C-18.16894775 -0.26000488 -17.17773926 -0.57469727 -16.15649414 -0.89892578 C-10.31007442 -2.42506045 -5.47594174 -2.63656454 0 0 Z " fill="#1F2E3A" transform="translate(239.375,7.625)"/>
<path d="M0 0 C5.49378338 4.97056592 7.83766592 10.11676397 8.625 17.375 C8.625 22.30092224 7.83136635 26.52736038 4.625 30.375 C0.58446014 33.32122698 -2.58057663 34.53801352 -7.5 35.3125 C-13.49217444 36.25863281 -18.71340159 38.30350757 -24.32226562 40.55957031 C-35.55053971 45.01989803 -46.78460296 49.1899418 -58.5625 51.9375 C-65.87068562 53.64312424 -72.76994116 55.84080371 -79.77636719 58.51904297 C-89.85493058 62.36208016 -100.11070756 65.66319053 -110.35253906 69.04052734 C-114.87387392 70.53647203 -119.38586184 72.05991424 -123.8984375 73.58203125 C-126.35307361 74.40789881 -128.80786616 75.23329942 -131.26272583 76.0585022 C-132.86875985 76.59930442 -134.47429768 77.14158261 -136.07931519 77.68539429 C-138.33924611 78.45071824 -140.60103501 79.210302 -142.86328125 79.96875 C-143.53406708 80.1975032 -144.20485291 80.42625641 -144.89596558 80.66194153 C-148.70206442 81.93111462 -152.4007392 82.82592702 -156.375 83.375 C-156.375 84.035 -156.375 84.695 -156.375 85.375 C-155.385 85.045 -154.395 84.715 -153.375 84.375 C-151.31072377 84.27914804 -149.24343906 84.24434879 -147.17694092 84.24128723 C-145.87873917 84.23702225 -144.58053741 84.23275726 -143.24299622 84.22836304 C-141.80099484 84.22871257 -140.35899349 84.22917411 -138.91699219 84.22973633 C-137.40083229 84.22674466 -135.88467315 84.22334211 -134.36851501 84.21955872 C-130.24644923 84.21071361 -126.12440419 84.20838034 -122.00232983 84.20774293 C-118.56065725 84.20679373 -115.11898952 84.20311516 -111.67731881 84.19957083 C-103.55489625 84.19142372 -95.43248477 84.18898677 -87.31005859 84.18969727 C-78.93553543 84.19029759 -70.56107677 84.17975538 -62.18656993 84.1639536 C-54.99494904 84.15086806 -47.80334921 84.14551382 -40.61171651 84.14615268 C-36.31738218 84.14640744 -32.02310512 84.1435684 -27.72878265 84.13297462 C-23.68718495 84.12327703 -19.64569906 84.12322585 -15.60409737 84.13049126 C-14.12348072 84.13153515 -12.64285706 84.12918579 -11.16225243 84.1231308 C-9.1351804 84.11538033 -7.1080701 84.12126877 -5.08099365 84.12776184 C-3.94831936 84.12721707 -2.81564507 84.12667231 -1.64864731 84.12611103 C3.57107229 84.52295605 7.47798963 85.40253468 11.5 88.8125 C15.0937043 93.1460846 14.83839641 97.30219661 14.875 102.6875 C14.9059375 103.80801758 14.9059375 103.80801758 14.9375 104.95117188 C14.9718827 109.84640835 14.28832919 113.11496617 11.625 117.375 C9.01570749 119.82121173 8.25468776 120.375 4.625 120.375 C4.62868717 120.93453621 4.63237434 121.49407242 4.63617325 122.07056427 C4.72465785 135.70937097 4.79051867 149.34812712 4.83224869 162.98715973 C4.85310871 169.58302011 4.88139817 176.17867306 4.92675781 182.77441406 C4.97027093 189.14161718 4.99414904 195.50862096 5.00450897 201.8759613 C5.01189043 204.30320879 5.02630467 206.73044557 5.04792023 209.15760803 C5.0770258 212.56169064 5.08095286 215.96495327 5.07910156 219.36914062 C5.10067322 220.86886917 5.10067322 220.86886917 5.12268066 222.39889526 C5.08279531 229.19233594 3.9522831 234.78643962 -0.78704453 239.89792633 C-6.15485676 244.65563818 -11.00384134 245.67314637 -17.98371887 245.64242554 C-18.74188721 245.64695665 -19.50005555 245.65148776 -20.28119868 245.65615618 C-22.81749223 245.66879963 -25.35357103 245.66717986 -27.88989258 245.66552734 C-29.71014176 245.67151265 -31.53038841 245.67831821 -33.35063171 245.68588257 C-38.2928775 245.70355008 -43.23505403 245.70823828 -48.17732835 245.70951414 C-51.26613666 245.71093594 -54.35492737 245.71520609 -57.44373131 245.72050858 C-68.22267143 245.73901173 -79.0015621 245.74717888 -89.78051758 245.74560547 C-99.82288273 245.74440417 -109.86503292 245.76550346 -119.90734369 245.7970928 C-128.53341075 245.82325872 -137.15940762 245.83397262 -145.78551406 245.83269465 C-150.93560097 245.83218509 -156.08549687 245.8378652 -161.2355442 245.85905075 C-166.08079507 245.87843825 -170.92567281 245.87855404 -175.77093697 245.86401749 C-177.54623714 245.86192889 -179.3215607 245.86663332 -181.09682083 245.8787384 C-183.52675956 245.89423047 -185.95541802 245.88485767 -188.3853302 245.86947632 C-189.08233325 245.87976344 -189.77933631 245.89005057 -190.49746066 245.90064943 C-196.70467803 245.81424626 -201.92443437 243.67211465 -206.43359375 239.4453125 C-206.88863281 238.80335938 -207.34367187 238.16140625 -207.8125 237.5 C-208.28558594 236.86320313 -208.75867188 236.22640625 -209.24609375 235.5703125 C-212.17242958 229.87965252 -211.51142306 223.10638752 -211.48852539 216.87158203 C-211.48867142 215.82707382 -211.48881744 214.78256561 -211.4889679 213.70640564 C-211.48827305 210.26518656 -211.48050066 206.82402208 -211.47265625 203.3828125 C-211.47079055 200.99242177 -211.46936736 198.60203065 -211.46836853 196.2116394 C-211.46455532 189.92837463 -211.45473522 183.64513306 -211.44366455 177.36187744 C-211.43342473 170.94698399 -211.4288654 164.53208677 -211.42382812 158.1171875 C-211.41311189 145.53644845 -211.39624277 132.95572546 -211.375 120.375 C-211.99181641 120.24319336 -212.60863281 120.11138672 -213.24414062 119.97558594 C-216.27088556 119.1224933 -217.41821139 117.82900539 -219.375 115.375 C-220.36234605 112.92959642 -221.16063049 110.64553425 -221.875 108.125 C-222.0814917 107.42624756 -222.2879834 106.72749512 -222.50073242 106.00756836 C-223.14337481 103.8013684 -223.76191826 101.58958156 -224.375 99.375 C-224.57689941 98.66037598 -224.77879883 97.94575195 -224.98681641 97.20947266 C-230.27739144 78.2996815 -230.27739144 78.2996815 -227.4453125 72.45703125 C-221.296928 63.92569299 -208.45536248 61.62232909 -198.875 58.8125 C-188.58266595 55.71490116 -178.37479893 52.42373543 -168.1875 49 C-152.33559937 43.6789331 -136.45517543 38.44800848 -120.5625 33.25 C-119.36471924 32.858125 -118.16693848 32.46625 -116.93286133 32.0625 C-102.35743543 27.29512317 -87.77357064 22.55604015 -73.17114258 17.87207031 C-61.6615777 14.16902795 -50.19590542 10.33534497 -38.7355957 6.48291016 C-32.22451596 4.29676083 -25.70746485 2.13026966 -19.16015625 0.0546875 C-18.16894775 -0.26000488 -17.17773926 -0.57469727 -16.15649414 -0.89892578 C-10.31007442 -2.42506045 -5.47594174 -2.63656454 0 0 Z M-184.21484375 56.203125 C-185.36146484 56.59113281 -186.50808594 56.97914062 -187.68945312 57.37890625 C-188.88505859 57.79011719 -190.08066406 58.20132813 -191.3125 58.625 C-193.65442421 59.42341281 -195.99687174 60.22029226 -198.33984375 61.015625 C-199.49983887 61.41072266 -200.65983398 61.80582031 -201.85498047 62.21289062 C-206.38474572 63.70836036 -210.95291696 65.05664415 -215.53735352 66.37402344 C-219.52141074 67.77939508 -222.5221071 69.31623641 -225.1875 72.625 C-228.43726595 80.15077379 -225.07963738 88.77137276 -223.1875 96.3125 C-222.89552734 97.54935547 -222.60355469 98.78621094 -222.30273438 100.06054688 C-220.02973378 110.05957678 -220.02973378 110.05957678 -214.375 118.375 C-212.71701794 118.74914488 -211.04996134 119.08622088 -209.375 119.375 C-209.37960896 119.93361442 -209.38421793 120.49222883 -209.38896656 121.06777096 C-209.49961901 134.69020495 -209.58192059 148.3125597 -209.63406086 161.93534756 C-209.6601256 168.52339392 -209.69546794 175.11111528 -209.75219727 181.69897461 C-209.80662641 188.05971014 -209.83644403 194.42013357 -209.84938622 200.78108406 C-209.85860636 203.20473199 -209.87661124 205.62836334 -209.90365028 208.05187798 C-209.94008378 211.45349573 -209.94493913 214.85383295 -209.94262695 218.25561523 C-209.96060333 219.25183899 -209.97857971 220.24806274 -209.99710083 221.2744751 C-209.94730988 228.06891477 -208.41453767 232.8670784 -204.375 238.375 C-199.56575558 242.84871574 -196.47084571 243.52446561 -190.08908081 243.52890015 C-189.3293922 243.5332824 -188.56970358 243.53766465 -187.7869941 243.5421797 C-185.22762252 243.55559174 -182.6682854 243.561752 -180.10888672 243.56787109 C-178.27922916 243.57577031 -176.44957316 243.58403914 -174.61991882 243.59265137 C-168.59819024 243.61889719 -162.57645462 243.63418373 -156.5546875 243.6484375 C-154.48269776 243.65379654 -152.41070806 243.65917405 -150.33871841 243.66456985 C-141.71912425 243.68620427 -133.09953198 243.70494048 -124.47991753 243.71619225 C-112.12375432 243.73242679 -99.76790585 243.76558624 -87.4118613 243.82259309 C-78.72641745 243.86129896 -70.04105774 243.88082584 -61.3555299 243.88611281 C-56.16732617 243.88976599 -50.9794579 243.90178351 -45.7913475 243.93421555 C-40.90752477 243.96430659 -36.0242403 243.97060423 -31.14034462 243.95883179 C-29.35051911 243.95861113 -27.56066856 243.96691012 -25.77092934 243.98448563 C-13.16172055 244.29300968 -13.16172055 244.29300968 -2.375 238.375 C3.68268087 231.99849382 3.91241109 226.20643239 3.85205078 217.80151367 C3.85234283 216.73764435 3.85263489 215.67377502 3.85293579 214.57766724 C3.85154398 211.06601772 3.83598951 207.55458114 3.8203125 204.04296875 C3.81658185 201.60630916 3.81373512 199.16964807 3.81173706 196.73298645 C3.80410474 190.32308808 3.78445958 183.9132805 3.7623291 177.50341797 C3.74186211 170.96127551 3.73273351 164.41911837 3.72265625 157.87695312 C3.70121341 145.04293004 3.66746723 132.20896985 3.625 119.375 C4.40294922 119.08689453 5.18089844 118.79878906 5.98242188 118.50195312 C9.49446097 117.00420992 10.7065237 115.68873179 12.625 112.375 C13.1918778 109.19221737 13.18427034 106.10029443 13.125 102.875 C13.14046875 102.03324219 13.1559375 101.19148438 13.171875 100.32421875 C13.14569752 96.16854342 12.98463333 93.94087204 10.7109375 90.36328125 C7.76079666 87.55125562 5.77219812 86.62993292 1.8125 85.75 C-3.92302198 86.87461215 -6.68474233 91.88932696 -9.8359375 96.5234375 C-10.79548537 97.99191684 -11.74840596 99.4647439 -12.6953125 100.94140625 C-15.34177588 104.77570087 -18.38702128 108.26653496 -21.421875 111.796875 C-23.71677374 114.58989929 -23.71677374 114.58989929 -25.375 119.375 C-33.295 119.375 -41.215 119.375 -49.375 119.375 C-42.62315725 109.24723587 -42.62315725 109.24723587 -40.0859375 105.953125 C-39.26222656 104.87998047 -39.26222656 104.87998047 -38.421875 103.78515625 C-37.87015625 103.07230469 -37.3184375 102.35945313 -36.75 101.625 C-35.91082031 100.53251953 -35.91082031 100.53251953 -35.0546875 99.41796875 C-32.73429282 96.40255019 -30.40652694 93.41299663 -27.9765625 90.484375 C-26.17343025 88.55093183 -26.17343025 88.55093183 -26.375 86.375 C-30.3577585 86.15062464 -34.33802306 85.9883769 -38.32568359 85.88061523 C-40.33953152 85.8136789 -42.35162057 85.69924603 -44.36328125 85.58398438 C-51.62144511 85.30377703 -51.62144511 85.30377703 -57.99658203 88.28881836 C-60.02368607 90.5575532 -61.71684175 92.82825418 -63.375 95.375 C-64.32545074 96.61027198 -65.28230324 97.84069132 -66.25 99.0625 C-69.56222013 103.57666151 -72.79857267 108.14797076 -76.03662109 112.71557617 C-79.27083887 117.27083887 -79.27083887 117.27083887 -80.375 118.375 C-82.08063778 118.53240605 -83.79227244 118.62593392 -85.50390625 118.69140625 C-86.53837891 118.73330078 -87.57285156 118.77519531 -88.63867188 118.81835938 C-89.72728516 118.85767578 -90.81589844 118.89699219 -91.9375 118.9375 C-93.5762207 119.00227539 -93.5762207 119.00227539 -95.24804688 119.06835938 C-97.95689564 119.17482068 -100.66583992 119.27683516 -103.375 119.375 C-102.43479676 117.95363059 -101.49309559 116.53325197 -100.55078125 115.11328125 C-100.02653564 114.32219971 -99.50229004 113.53111816 -98.9621582 112.71606445 C-96.55905602 109.17147949 -93.97303354 105.77789131 -91.375 102.375 C-89.78820743 100.29418064 -88.20502278 98.21093361 -86.625 96.125 C-85.48804688 94.63226563 -85.48804688 94.63226563 -84.328125 93.109375 C-82.73669239 90.88136934 -81.5508626 88.82482275 -80.375 86.375 C-84.49981817 86.1009066 -88.62105522 85.90256929 -92.75292969 85.77075195 C-94.15425972 85.71577571 -95.55496836 85.64094979 -96.95410156 85.54516602 C-101.58062804 85.23662092 -105.83999425 85.20772172 -110.375 86.375 C-113.98519294 89.58551094 -116.07480019 93.1718778 -118.375 97.375 C-120.05022419 99.63506176 -121.79897216 101.79611793 -123.58984375 103.96484375 C-125.50318799 106.40964416 -125.50318799 106.40964416 -127.00390625 109.56640625 C-130.81682169 116.30865964 -130.81682169 116.30865964 -134.375 118.375 C-141.86148044 120.14430626 -149.73955056 119.7575774 -157.375 119.375 C-151.16005853 109.01515297 -143.75853775 99.79965166 -136.01171875 90.5546875 C-134.17484717 88.56274497 -134.17484717 88.56274497 -134.375 86.375 C-144.275 86.375 -154.175 86.375 -164.375 86.375 C-163.375 84.375 -163.375 84.375 -161.7043457 83.62890625 C-160.99366943 83.40074219 -160.28299316 83.17257813 -159.55078125 82.9375 C-158.76896484 82.68226562 -157.98714844 82.42703125 -157.18164062 82.1640625 C-156.35857422 81.90367188 -155.53550781 81.64328125 -154.6875 81.375 C-153.88376953 81.11460938 -153.08003906 80.85421875 -152.25195312 80.5859375 C-150.68273755 80.07783499 -149.11261031 79.57253789 -147.54150391 79.0703125 C-144.8117894 78.19424456 -142.09250679 77.28815252 -139.375 76.375 C-141.51724183 74.06420615 -143.62830465 72.50488916 -146.3671875 70.95703125 C-147.14892334 70.51077393 -147.93065918 70.0645166 -148.73608398 69.60473633 C-149.56567627 69.13704834 -150.39526855 68.66936035 -151.25 68.1875 C-158.23085495 64.21672022 -165.07698432 60.11777682 -171.80859375 55.73828125 C-176.28905669 53.35824842 -179.68767237 54.65395415 -184.21484375 56.203125 Z " fill="#F6F8F8" transform="translate(239.375,7.625)"/>
<path d="M0 0 C0 0.66 0 1.32 0 2 C0.99 2.309375 0.99 2.309375 2 2.625 C11.70521227 7.07322229 17.15461986 14.3162138 21.375 23.9375 C24.9510474 34.68073102 24.55638347 47.16057903 19.546875 57.3203125 C15.16313441 64.91436816 10.81065877 71.5829378 3 76 C2.34 76 1.68 76 1 76 C1 76.66 1 77.32 1 78 C-4.6640625 80.1484375 -4.6640625 80.1484375 -7 81 C-7.93328125 81.35578125 -8.8665625 81.7115625 -9.828125 82.078125 C-19.78312704 84.97145072 -30.77276073 83.50076851 -40 79 C-51.11820842 72.12724206 -58.04139865 62.45314671 -62.3125 50.25 C-64.65098215 38.96625604 -63.54852212 26.66604852 -57.609375 16.65625 C-56.16017524 14.67313453 -54.62539501 12.84022278 -53 11 C-52.51402344 10.37351563 -52.02804688 9.74703125 -51.52734375 9.1015625 C-48.24154681 4.94831517 -44.85163153 2.19500999 -40 0 C-38.86498047 -0.55880859 -38.86498047 -0.55880859 -37.70703125 -1.12890625 C-25.44330143 -6.45370271 -12.07426505 -5.21124349 0 0 Z " fill="#EBF2EF" transform="translate(156,149)"/>
<path d="M0 0 C5.49378338 4.97056592 7.83766592 10.11676397 8.625 17.375 C8.625 22.30092224 7.83136635 26.52736038 4.625 30.375 C0.58446014 33.32122698 -2.58057663 34.53801352 -7.5 35.3125 C-13.49217444 36.25863281 -18.71340159 38.30350757 -24.32226562 40.55957031 C-36.38454546 45.35119908 -48.40019275 49.56905982 -61.04516602 52.51611328 C-69.27076199 54.48152837 -77.03651039 57.41049095 -84.92041016 60.43701172 C-89.28585201 62.10520623 -93.66805672 63.72244829 -98.0625 65.3125 C-98.87589844 65.61913574 -99.68929687 65.92577148 -100.52734375 66.24169922 C-105.70872694 68.10429496 -109.86932198 68.68331797 -115.375 68.375 C-110.87151291 66.02686332 -106.15808929 64.43091424 -101.375 62.75 C-100.02148438 62.26273438 -100.02148438 62.26273438 -98.640625 61.765625 C-97.76921875 61.45882812 -96.8978125 61.15203125 -96 60.8359375 C-95.20851562 60.55540527 -94.41703125 60.27487305 -93.6015625 59.98583984 C-91.375 59.375 -91.375 59.375 -87.375 59.375 C-87.375 58.715 -87.375 58.055 -87.375 57.375 C-88.03371094 57.14167969 -88.69242188 56.90835938 -89.37109375 56.66796875 C-93.26703465 54.9910423 -96.80302374 52.8639667 -100.4375 50.6875 C-101.18829834 50.24559326 -101.93909668 49.80368652 -102.71264648 49.34838867 C-106.13817634 47.32904815 -109.53883222 45.28921188 -112.875 43.125 C-118.67368808 39.19461394 -118.67368808 39.19461394 -125.375 38.1875 C-127.30897662 38.63368026 -127.30897662 38.63368026 -129.375 39.375 C-130.32375 39.67664062 -131.2725 39.97828125 -132.25 40.2890625 C-134.32432405 40.96840363 -136.39228242 41.66751607 -138.453125 42.38671875 C-142.05947798 43.60651461 -145.66745859 44.51941352 -149.375 45.375 C-149.375 46.035 -149.375 46.695 -149.375 47.375 C-150.365 47.045 -151.355 46.715 -152.375 46.375 C-152.045 45.385 -151.715 44.395 -151.375 43.375 C-149.26144409 42.36021423 -149.26144409 42.36021423 -146.42919922 41.44897461 C-144.83588776 40.92658707 -144.83588776 40.92658707 -143.21038818 40.39364624 C-142.04525696 40.02526642 -140.88012573 39.6568866 -139.6796875 39.27734375 C-138.47749573 38.88688873 -137.27530396 38.49643372 -136.03668213 38.09414673 C-132.78457915 37.04038174 -129.52940403 35.99734104 -126.27237701 34.95897293 C-122.90253183 33.8817684 -119.5371795 32.79071395 -116.17138672 31.70092773 C-109.68623845 29.6034306 -103.1966433 27.52007888 -96.70532227 25.44177246 C-92.43213141 24.0729793 -88.16101462 22.69781561 -83.890625 21.3203125 C-80.27018779 20.15264707 -76.64960307 18.98549204 -73.02734375 17.82348633 C-61.56465457 14.13916643 -50.14740563 10.31904493 -38.73486328 6.48266602 C-32.22402823 4.29659652 -25.70721948 2.13019187 -19.16015625 0.0546875 C-18.16894775 -0.26000488 -17.17773926 -0.57469727 -16.15649414 -0.89892578 C-10.31007442 -2.42506045 -5.47594174 -2.63656454 0 0 Z " fill="#F6F8F7" transform="translate(239.375,7.625)"/>
<path d="M0 0 C0.66 0 1.32 0 2 0 C1.89453125 1.828125 1.89453125 1.828125 1 4 C-1.80078125 5.484375 -1.80078125 5.484375 -5.3125 6.75 C-6.46363281 7.17796875 -7.61476563 7.6059375 -8.80078125 8.046875 C-12 9 -12 9 -16 9 C-16 9.66 -16 10.32 -16 11 C-15.01 10.67 -14.02 10.34 -13 10 C-10.91991535 9.90825629 -8.83694324 9.87806229 -6.75483704 9.87974548 C-5.44651917 9.87837082 -4.13820129 9.87699615 -2.79023743 9.87557983 C-1.33712746 9.87911901 0.11598228 9.88275382 1.5690918 9.88647461 C3.09660846 9.88675663 4.62412526 9.88659846 6.15164185 9.8860321 C10.30217011 9.88574471 14.45266958 9.89163213 18.60319114 9.89860606 C22.93938282 9.90484919 27.27557514 9.90544416 31.61177063 9.90663147 C39.82463992 9.90974195 48.03749592 9.91795153 56.25035936 9.92798096 C65.59970509 9.93915087 74.94905145 9.94465477 84.29840219 9.94967639 C103.53227566 9.96013437 122.76613676 9.97772835 142 10 C140.83549316 11.13961182 140.83549316 11.13961182 139.64746094 12.30224609 C136.80898736 15.19464124 134.53294953 18.29744344 132.25 21.625 C128.37199938 27.17914156 124.29656729 32.43108498 119.91015625 37.59765625 C117.92146035 39.91986461 117.92146035 39.91986461 116.72705078 42.61962891 C115 45 115 45 112.45629883 45.56762695 C111.46654053 45.54144287 110.47678223 45.51525879 109.45703125 45.48828125 C108.38388672 45.47216797 107.31074219 45.45605469 106.20507812 45.43945312 C104.52575195 45.37661133 104.52575195 45.37661133 102.8125 45.3125 C101.68134766 45.28994141 100.55019531 45.26738281 99.38476562 45.24414062 C96.58852024 45.18514811 93.79491903 45.1028824 91 45 C92.60129737 40.73750532 94.73431273 37.47273409 97.5625 33.9375 C98.46030347 32.79349272 99.35742289 31.64894831 100.25390625 30.50390625 C100.93670654 29.63596436 100.93670654 29.63596436 101.63330078 28.75048828 C103.79182689 25.98581658 105.89827088 23.18295881 108 20.375 C108.721875 19.41335937 109.44375 18.45171875 110.1875 17.4609375 C111.50403539 15.67340022 112.76854621 13.84718069 114 12 C109.99695857 11.94483319 105.99758447 11.9427324 101.99438477 11.98779297 C100.63567066 11.99585655 99.27679329 11.98993483 97.91821289 11.96923828 C89.82190414 11.67531205 89.82190414 11.67531205 82.60327148 14.72021484 C80.83354328 16.73208217 79.40830013 18.72513623 78 21 C77.07261696 22.21611529 76.1365432 23.42571158 75.1875 24.625 C73.253732 27.24528184 71.36090222 29.89372585 69.47265625 32.546875 C69.02446533 33.1764209 68.57627441 33.8059668 68.11450195 34.45458984 C67.21618181 35.71889227 66.32012311 36.98480507 65.42651367 38.25244141 C63.72347746 40.65637694 62.08741142 42.91258858 60 45 C57.66162109 45.22705078 57.66162109 45.22705078 54.7734375 45.1953125 C53.2265625 45.18564453 53.2265625 45.18564453 51.6484375 45.17578125 C50.02808594 45.15064453 50.02808594 45.15064453 48.375 45.125 C47.28703125 45.11597656 46.1990625 45.10695312 45.078125 45.09765625 C42.38519848 45.07403409 39.69270745 45.04109556 37 45 C38.54565163 40.92533294 40.39188981 37.8994021 43.0625 34.4375 C43.86042969 33.39464844 44.65835938 32.35179687 45.48046875 31.27734375 C45.89474121 30.73964355 46.30901367 30.20194336 46.73583984 29.64794922 C48.80582317 26.94953527 50.83818377 24.22353333 52.875 21.5 C55.25 18.33333333 57.625 15.16666667 60 12 C43.22136732 10.2742746 43.22136732 10.2742746 27.53027344 14.5546875 C23.72577025 18.4232788 21.34863959 23.02004496 19.05566406 27.89599609 C17.5774005 30.84226699 15.62354597 33.2420846 13.5 35.75 C12.9121875 36.46671875 12.324375 37.1834375 11.71875 37.921875 C11.1515625 38.60765625 10.584375 39.2934375 10 40 C9.51015625 40.90621094 9.0203125 41.81242187 8.515625 42.74609375 C4.35826522 46.47093318 -0.39007559 45.52364854 -5.75 45.3125 C-6.82894531 45.28994141 -7.90789062 45.26738281 -9.01953125 45.24414062 C-11.6810935 45.1852565 -14.33984228 45.10307001 -17 45 C-15.46379401 40.9564622 -13.64595763 37.93974492 -11 34.5 C-10.20464844 33.45972656 -9.40929687 32.41945312 -8.58984375 31.34765625 C-7.72697587 30.23145116 -6.8636817 29.1155755 -6 28 C-4.63010854 26.22193081 -3.26121666 24.44309623 -1.89257812 22.6640625 C-1.02189415 21.53383543 -0.14956043 20.40487688 0.72460938 19.27734375 C2.56887752 16.89379849 4.32710887 14.50933669 6 12 C-3.9 12 -13.8 12 -24 12 C-23 9 -23 9 -21.31347656 8.12451172 C-20.59643555 7.89521973 -19.87939453 7.66592773 -19.140625 7.4296875 C-18.35429688 7.17316406 -17.56796875 6.91664062 -16.7578125 6.65234375 C-15.93023437 6.39582031 -15.10265625 6.13929687 -14.25 5.875 C-13.43789062 5.61074219 -12.62578125 5.34648438 -11.7890625 5.07421875 C-7.88848207 3.82272959 -4.04939329 2.67489888 0 2 C0 1.34 0 0.68 0 0 Z " fill="#F5F7F8" transform="translate(99,82)"/>
<path d="M0 0 C4.26191034 0.39230974 6.83993399 1.24970433 10.1875 3.875 C15.92772972 8.10787169 22.0301131 11.57622277 28.22338867 15.09130859 C40.76228742 22.22743413 40.76228742 22.22743413 41.75 25.4375 C40.65331347 29.18451231 38.22413572 31.0440664 35 33 C33.2883375 33.71963008 31.57645232 34.4387518 29.86206055 35.15185547 C26.78765717 36.5522065 23.99884809 38.39326184 21.1875 40.25 C20.58365479 40.6404248 19.97980957 41.03084961 19.35766602 41.43310547 C14.81760115 44.39001451 10.45703514 47.54997259 6.18359375 50.8828125 C3.37320534 52.32068564 1.99440168 51.72192269 -1 51 C-1.02526787 43.89755001 -1.04283201 36.79511152 -1.05493164 29.69262695 C-1.05997349 27.27432828 -1.06680678 24.85603267 -1.07543945 22.43774414 C-1.08751157 18.97020717 -1.09322963 15.50271034 -1.09765625 12.03515625 C-1.10281754 10.94662857 -1.10797882 9.85810089 -1.11329651 8.73658752 C-1.11337204 7.73562546 -1.11344757 6.73466339 -1.11352539 5.70336914 C-1.115746 4.81734512 -1.11796661 3.93132111 -1.12025452 3.01844788 C-1 1 -1 1 0 0 Z " fill="#202E38" transform="translate(120,163)"/>
<path d="M0 0 C3.76899455 2.84597548 5.41480046 5.13387426 6.75 9.625 C7.47008813 15.81775788 7.8500692 20.43359455 4.39453125 25.76953125 C1.3620603 29.28221754 -2.18211993 31.1573932 -6.85522461 31.5703125 C-10.25827687 31.28566908 -11.98535116 30.51910163 -14.87890625 28.75 C-16.24088135 27.9307605 -16.24088135 27.9307605 -17.63037109 27.0949707 C-18.57734863 26.50675537 -19.52432617 25.91854004 -20.5 25.3125 C-21.47275879 24.72106201 -22.44551758 24.12962402 -23.44775391 23.52026367 C-25.38828547 22.33850284 -27.32554155 21.1513445 -29.25927734 19.95849609 C-31.5839673 18.52977598 -33.9203576 17.12619935 -36.26953125 15.73828125 C-42.82782193 11.82907989 -42.82782193 11.82907989 -44.9375 10.3125 C-44.9375 9.6525 -44.9375 8.9925 -44.9375 8.3125 C-43.95652344 8.00957031 -42.97554687 7.70664062 -41.96484375 7.39453125 C-40.60155536 6.97137716 -39.23827472 6.54819813 -37.875 6.125 C-37.15489746 5.90303955 -36.43479492 5.6810791 -35.69287109 5.45239258 C-32.06369322 4.3249618 -28.46016402 3.16133989 -24.88671875 1.8671875 C-8.18504345 -4.15208025 -8.18504345 -4.15208025 0 0 Z " fill="#24333E" transform="translate(238.9375,9.6875)"/>
<path d="M0 0 C0.73984131 0.4419873 1.47968262 0.88397461 2.24194336 1.33935547 C9.281514 5.57138413 16.19551528 9.99456153 23.0625 14.5 C22.1172162 16.85063197 21.55625762 18.21428281 19.32592773 19.50488281 C18.63958252 19.73530273 17.9532373 19.96572266 17.24609375 20.203125 C16.48103516 20.4609375 15.71597656 20.71875 14.92773438 20.984375 C14.12658203 21.23703125 13.32542969 21.4896875 12.5 21.75 C11.72591797 22.018125 10.95183594 22.28625 10.15429688 22.5625 C4.1911263 24.5088471 -2.46025656 26.26142332 -8.3203125 23.29296875 C-8.89523438 22.76316406 -9.47015625 22.23335937 -10.0625 21.6875 C-12.86101917 19.16883274 -15.4971722 17.78624612 -18.984375 16.3684082 C-22.63802526 14.74390395 -25.98545605 12.60877391 -29.375 10.5 C-30.10654297 10.06171875 -30.83808594 9.6234375 -31.59179688 9.171875 C-32.28208984 8.74390625 -32.97238281 8.3159375 -33.68359375 7.875 C-34.30935303 7.49085937 -34.9351123 7.10671875 -35.57983398 6.7109375 C-36.02786377 6.31132813 -36.47589355 5.91171875 -36.9375 5.5 C-36.9375 4.51 -36.9375 3.52 -36.9375 2.5 C-35.95910156 2.17386719 -34.98070312 1.84773438 -33.97265625 1.51171875 C-33.02592041 1.19581787 -33.02592041 1.19581787 -32.06005859 0.87353516 C-30.68199692 0.41461678 -29.30341092 -0.04272998 -27.92431641 -0.49853516 C-24.97229936 -1.47603809 -22.03328703 -2.46489134 -19.11328125 -3.53515625 C-18.35402344 -3.81230469 -17.59476563 -4.08945312 -16.8125 -4.375 C-15.84957031 -4.74238281 -15.84957031 -4.74238281 -14.8671875 -5.1171875 C-9.18072983 -6.24527019 -4.64664442 -2.81999628 0 0 Z " fill="#22313B" transform="translate(179.9375,32.5)"/>
<path d="M0 0 C1.0626709 0.64598145 2.1253418 1.29196289 3.22021484 1.95751953 C3.79774506 2.30412628 4.37527527 2.65073303 4.9703064 3.00784302 C6.79743186 4.10780141 8.61423767 5.22360602 10.43115234 6.34033203 C11.65706258 7.08229621 12.88362048 7.82319142 14.11083984 8.56298828 C16.36839999 9.9261163 18.6209896 11.29637447 20.87109375 12.671875 C22.78860358 13.84356251 24.72823092 14.97999143 26.69042969 16.07519531 C27.38861816 16.53394043 28.08680664 16.99268555 28.80615234 17.46533203 C28.80615234 18.12533203 28.80615234 18.78533203 28.80615234 19.46533203 C24.96046737 20.84446494 21.1035507 22.18904852 17.24365234 23.52783203 C15.61459961 24.11274414 15.61459961 24.11274414 13.95263672 24.70947266 C8.11843297 26.71331771 3.82838904 28.17534986 -2.19384766 26.46533203 C-2.85384766 26.13533203 -3.51384766 25.80533203 -4.19384766 25.46533203 C-4.19384766 24.80533203 -4.19384766 24.14533203 -4.19384766 23.46533203 C-4.90283203 23.36478516 -5.61181641 23.26423828 -6.34228516 23.16064453 C-11.81843761 21.82536352 -16.43009981 18.39064321 -21.19384766 15.46533203 C-22.23541016 14.83369141 -23.27697266 14.20205078 -24.35009766 13.55126953 C-31.92705661 8.8655186 -31.92705661 8.8655186 -34.19384766 5.46533203 C-32.18603136 4.79605993 -30.17748442 4.12894187 -28.16650391 3.46923828 C-25.93473747 2.71554055 -23.71518958 1.92550448 -21.50244141 1.11767578 C-20.19125424 0.65019772 -18.8800563 0.18274987 -17.56884766 -0.28466797 C-16.33908203 -0.73326172 -15.10931641 -1.18185547 -13.84228516 -1.64404297 C-8.63552541 -2.91507211 -4.83186661 -2.32174847 0 0 Z " fill="#23313C" transform="translate(123.19384765625,47.53466796875)"/>
<path d="M0 0 C4.96682232 -0.29216602 8.10349334 -0.24708889 12 3 C15.08442886 7.93210605 15.46411228 11.86612357 15.375 17.5 C15.38660156 18.23347656 15.39820313 18.96695313 15.41015625 19.72265625 C15.3843285 24.53522771 14.59304063 27.81318805 12 32 C9.39070749 34.44621173 8.62968776 35 5 35 C5.00368717 35.55953621 5.00737434 36.11907242 5.01117325 36.69556427 C5.09965785 50.33437097 5.16551867 63.97312712 5.20724869 77.61215973 C5.22810871 84.20802011 5.25639817 90.80367306 5.30175781 97.39941406 C5.34527093 103.76661718 5.36914904 110.13362096 5.37950897 116.5009613 C5.38689043 118.92820879 5.40130467 121.35544557 5.42292023 123.78260803 C5.4520258 127.18669064 5.45595286 130.58995327 5.45410156 133.99414062 C5.47567322 135.49386917 5.47567322 135.49386917 5.49768066 137.02389526 C5.45779531 143.81733594 4.3272831 149.41143962 -0.41204453 154.52292633 C-5.77985676 159.28063818 -10.62884134 160.29814637 -17.60871887 160.26742554 C-18.36688721 160.27195665 -19.12505555 160.27648776 -19.90619868 160.28115618 C-22.44249223 160.29379963 -24.97857103 160.29217986 -27.51489258 160.29052734 C-29.33514176 160.29651265 -31.15538841 160.30331821 -32.97563171 160.31088257 C-37.9178775 160.32855008 -42.86005403 160.33323828 -47.80232835 160.33451414 C-50.89113666 160.33593594 -53.97992737 160.34020609 -57.06873131 160.34550858 C-67.84767143 160.36401173 -78.6265621 160.37217888 -89.40551758 160.37060547 C-99.44788273 160.36940417 -109.49003292 160.39050346 -119.53234369 160.4220928 C-128.15841075 160.44825872 -136.78440762 160.45897262 -145.41051406 160.45769465 C-150.56060097 160.45718509 -155.71049687 160.4628652 -160.8605442 160.48405075 C-165.70579507 160.50343825 -170.55067281 160.50355404 -175.39593697 160.48901749 C-177.17123714 160.48692889 -178.9465607 160.49163332 -180.72182083 160.5037384 C-183.15175956 160.51923047 -185.58041802 160.50985767 -188.0103302 160.49447632 C-188.70733325 160.50476344 -189.40433631 160.51505057 -190.12246066 160.52564943 C-196.09162405 160.44255993 -201.17051142 158.4956176 -205.64090949 154.5527128 C-207.0625 153 -207.0625 153 -209 150 C-208.62109375 147.8125 -208.62109375 147.8125 -208 146 C-207.54109375 146.62648437 -207.0821875 147.25296875 -206.609375 147.8984375 C-205.68898437 149.12433594 -205.68898437 149.12433594 -204.75 150.375 C-203.84507812 151.59316406 -203.84507812 151.59316406 -202.921875 152.8359375 C-199.99854911 156.12764999 -198.03897933 156.92030209 -193.60970688 157.26006222 C-192.23106753 157.27494688 -190.85228352 157.27884109 -189.47357178 157.27415466 C-188.71217431 157.27939134 -187.95077685 157.28462802 -187.16630673 157.29002339 C-184.61309676 157.30503388 -182.06008702 157.30572877 -179.50683594 157.30639648 C-177.67688152 157.31401735 -175.84693032 157.32244472 -174.01698303 157.33161926 C-169.04369469 157.35358033 -164.07046785 157.36236551 -159.0971365 157.36744571 C-155.98940488 157.37108786 -152.8816894 157.37732723 -149.77396393 157.3844471 C-138.93019401 157.4089487 -128.08647196 157.4219947 -117.24267578 157.42553711 C-107.13837294 157.42917131 -97.03437406 157.45905668 -86.9301641 157.50094169 C-78.25316189 157.53564814 -69.57626038 157.55108563 -60.89918923 157.55178314 C-55.71773808 157.55257594 -50.53659637 157.56131552 -45.35521698 157.58978081 C-40.47955474 157.61596688 -35.60445836 157.61816356 -30.72875786 157.60212517 C-28.94216363 157.60031102 -27.15553683 157.60699833 -25.36901283 157.62294388 C-13.71521166 158.02814656 -13.71521166 158.02814656 -3.35484695 153.37785435 C0.99536781 148.95376622 3.12819841 144.67627352 3.11784363 138.52809143 C3.11896149 137.61260529 3.12007935 136.69711914 3.12123108 135.75389099 C3.11756027 134.7517305 3.11388947 133.74957001 3.11010742 132.71704102 C3.11065011 130.52600605 3.11123711 128.3349711 3.11186218 126.14393616 C3.11043402 124.98061327 3.10900585 123.81729038 3.10753441 122.61871529 C3.10402321 116.47428094 3.12980002 110.32993915 3.15039062 104.18554688 C3.17475878 96.35921558 3.19039798 88.53315109 3.17504883 80.70678711 C3.16341582 74.38777993 3.18070648 68.06943569 3.21749306 61.75053215 C3.22613117 59.33956261 3.22399383 56.92852997 3.210989 54.51758003 C3.19417098 51.14842808 3.2142108 47.78138124 3.24291992 44.41235352 C3.22912796 43.41221725 3.215336 42.41208099 3.2011261 41.38163757 C3.24420278 38.78206955 3.32846591 36.51191283 4 34 C6.9223175 31.53672791 6.9223175 31.53672791 10 30 C12.77300283 25.84049575 12.33074562 22.44867832 12.3125 17.5625 C12.32861328 16.70333984 12.34472656 15.84417969 12.36132812 14.95898438 C12.3652761 10.06626347 12.3652761 10.06626347 10.7734375 5.51171875 C8.68141405 3.72843004 6.94721715 3.01368613 4.3125 2.25 C3.50425781 2.00765625 2.69601563 1.7653125 1.86328125 1.515625 C1.24839844 1.34546875 0.63351563 1.1753125 0 1 C0 0.67 0 0.34 0 0 Z " fill="#D5D8D9" transform="translate(239,93)"/>
<path d="M0 0 C0.495 1.98 0.495 1.98 1 4 C-0.32644531 3.62294922 -0.32644531 3.62294922 -1.6796875 3.23828125 C-7.77358602 2.37668786 -13.48469751 5.16556337 -19.125 7.1875 C-21.43957728 7.9950014 -23.75468101 8.80099542 -26.0703125 9.60546875 C-27.21145508 10.00556152 -28.35259766 10.4056543 -29.52832031 10.81787109 C-34.03923674 12.35386669 -38.58893873 13.73947231 -43.15576172 15.09887695 C-48.5624451 16.50170396 -48.5624451 16.50170396 -52.3125 20.1875 C-54.31049323 28.36110868 -51.75905732 36.07857399 -49.75 44 C-49.29947266 45.86785156 -49.29947266 45.86785156 -48.83984375 47.7734375 C-46.59997464 56.91895134 -46.59997464 56.91895134 -42 65 C-39.44091249 66.18390638 -39.44091249 66.18390638 -37 67 C-36.82282986 81.56831965 -36.65728408 96.13673133 -36.50522423 110.70533562 C-36.43441645 117.4694847 -36.35982047 124.23355273 -36.27636719 130.99755859 C-36.19590186 137.52024248 -36.12591284 144.04298917 -36.06242752 150.56586075 C-36.03642305 153.059479 -36.00685603 155.55306263 -35.97373581 158.04659653 C-35.92808802 161.52827426 -35.89489503 165.00985776 -35.86474609 168.49169922 C-35.8482048 169.53179138 -35.83166351 170.57188354 -35.81462097 171.64349365 C-35.80895615 172.58862823 -35.80329132 173.53376282 -35.79745483 174.50753784 C-35.7882369 175.33162077 -35.77901897 176.1557037 -35.76952171 177.00475883 C-36 179 -36 179 -38 181 C-39.16150201 175.47758886 -39.13414061 170.10989883 -39.11352539 164.49658203 C-39.11367142 163.45207382 -39.11381744 162.40756561 -39.1139679 161.33140564 C-39.11327305 157.89018656 -39.10550066 154.44902208 -39.09765625 151.0078125 C-39.09579055 148.61742177 -39.09436736 146.22703065 -39.09336853 143.8366394 C-39.08955532 137.55337463 -39.07973522 131.27013306 -39.06866455 124.98687744 C-39.05842473 118.57198399 -39.0538654 112.15708677 -39.04882812 105.7421875 C-39.03811189 93.16144845 -39.02124277 80.58072546 -39 68 C-39.61681641 67.86819336 -40.23363281 67.73638672 -40.86914062 67.60058594 C-43.89588556 66.7474933 -45.04321139 65.45400539 -47 63 C-47.98734605 60.55459642 -48.78563049 58.27053425 -49.5 55.75 C-49.7064917 55.05124756 -49.9129834 54.35249512 -50.12573242 53.63256836 C-50.76837481 51.4263684 -51.38691826 49.21458156 -52 47 C-52.30284912 45.92806396 -52.30284912 45.92806396 -52.61181641 44.83447266 C-57.90239144 25.9246815 -57.90239144 25.9246815 -55.0703125 20.08203125 C-48.62904703 11.14429898 -34.7347538 8.8261013 -24.75 5.875 C-22.51492175 5.20808149 -20.28052806 4.53886383 -18.046875 3.8671875 C-17.00466797 3.55491211 -15.96246094 3.24263672 -14.88867188 2.92089844 C-12.35261397 2.11241209 -9.91637477 1.19906969 -7.453125 0.1953125 C-3.98346563 -1.00572344 -3.27062134 -1.05350884 0 0 Z " fill="#F5F6F6" transform="translate(67,60)"/>
<path d="M0 0 C2.02093192 3.33893099 1.9092343 5.53373495 1.4375 9.375 C-0.21389305 12.9136994 -1.27855229 14.18570153 -4.5625 16.375 C-7.5794088 16.71561873 -9.65657815 16.94712107 -12.5625 16.375 C-15.25355198 14.19925584 -17.01782928 12.46434144 -18.5625 9.375 C-19.01704545 3.23863636 -19.01704545 3.23863636 -17.3125 0 C-12.74040237 -4.24551923 -4.92274908 -3.12174332 0 0 Z " fill="#F0F4F4" transform="translate(52.5625,91.625)"/>
<path d="M0 0 C4.96682232 -0.29216602 8.10349334 -0.24708889 12 3 C15.08442886 7.93210605 15.46411228 11.86612357 15.375 17.5 C15.38660156 18.23347656 15.39820313 18.96695313 15.41015625 19.72265625 C15.3843285 24.53522771 14.59304063 27.81318805 12 32 C9.39070749 34.44621173 8.62968776 35 5 35 C5.00368717 35.55953621 5.00737434 36.11907242 5.01117325 36.69556427 C5.09965785 50.33437097 5.16551867 63.97312712 5.20724869 77.61215973 C5.22810871 84.20802011 5.25639817 90.80367306 5.30175781 97.39941406 C5.34527093 103.76661718 5.36914904 110.13362096 5.37950897 116.5009613 C5.38689043 118.92820879 5.40130467 121.35544557 5.42292023 123.78260803 C5.4520258 127.18669064 5.45595286 130.58995327 5.45410156 133.99414062 C5.46848267 134.99395966 5.48286377 135.99377869 5.49768066 137.02389526 C5.45729414 143.90269753 4.24022792 149.34286385 -0.41204453 154.59372711 C-2.85053562 156.8417009 -4.55654863 157.95179876 -7.875 158.3125 C-8.926875 158.1578125 -8.926875 158.1578125 -10 158 C-9.195625 157.4121875 -9.195625 157.4121875 -8.375 156.8125 C-7.59125 156.214375 -6.8075 155.61625 -6 155 C-2.9375 152.75 -2.9375 152.75 -1.46484375 151.671875 C3.54795938 145.95059569 3.41630882 139.46124236 3.3371582 132.26293945 C3.3377121 131.20520325 3.33826599 130.14746704 3.33883667 129.05767822 C3.33857752 126.77037429 3.33173054 124.48306355 3.31899452 122.19579506 C3.30059792 118.57722142 3.30329053 114.95922573 3.3120575 111.34062195 C3.3338622 101.05601008 3.32282103 90.77162212 3.28491211 80.48706055 C3.26316971 74.1894359 3.27029549 67.89238187 3.2953701 61.59477806 C3.29897078 59.19494856 3.29126282 56.79507484 3.27211952 54.39531898 C3.24590611 51.045859 3.25616543 47.69834514 3.2746582 44.34887695 C3.25772415 43.35502487 3.2407901 42.36117279 3.2233429 41.33720398 C3.25826473 38.75198935 3.33518224 36.49873849 4 34 C6.92033386 31.54069519 6.92033386 31.54069519 10 30 C12.77300283 25.84049575 12.33074562 22.44867832 12.3125 17.5625 C12.32861328 16.70333984 12.34472656 15.84417969 12.36132812 14.95898438 C12.3652761 10.06626347 12.3652761 10.06626347 10.7734375 5.51171875 C8.68141405 3.72843004 6.94721715 3.01368613 4.3125 2.25 C3.50425781 2.00765625 2.69601563 1.7653125 1.86328125 1.515625 C0.94095703 1.26039062 0.94095703 1.26039062 0 1 C0 0.67 0 0.34 0 0 Z " fill="#EFF1F1" transform="translate(239,93)"/>
<path d="M0 0 C5.49378338 4.97056592 7.83766592 10.11676397 8.625 17.375 C8.625 22.34029313 7.68169826 26.37777919 4.625 30.375 C1.39708445 32.5269437 0.34099191 32.57586443 -3.375 32.375 C-2.7975 31.9625 -2.22 31.55 -1.625 31.125 C1.76870875 28.48544875 4.24624484 26.51126549 5.625 22.375 C5.9642486 15.59002797 5.77581009 9.91185293 1.1875 4.5 C-2.84303405 1.15760591 -6.34282345 1.00732349 -11.38378906 1.05859375 C-17.26802274 1.68102003 -22.71506957 3.87159583 -28.25 5.875 C-30.6413836 6.72396667 -33.03454395 7.56794976 -35.4296875 8.40625 C-36.47624512 8.78330078 -37.52280273 9.16035156 -38.60107422 9.54882812 C-41.375 10.375 -41.375 10.375 -45.375 10.375 C-45.705 11.035 -46.035 11.695 -46.375 12.375 C-46.29663086 10.53613281 -46.29663086 10.53613281 -45.375 8.375 C-43.0794774 7.28604609 -41.04159928 6.51727866 -38.62890625 5.796875 C-37.9437645 5.58057434 -37.25862274 5.36427368 -36.55271912 5.14141846 C-35.09667757 4.68636096 -33.63798864 4.23970291 -32.17700195 3.80078125 C-29.970164 3.13485653 -27.77544995 2.43705233 -25.58007812 1.734375 C-7.88209178 -3.79508123 -7.88209178 -3.79508123 0 0 Z " fill="#E8E9EA" transform="translate(239.375,7.625)"/>
<path d="M0 0 C0.495 1.98 0.495 1.98 1 4 C-0.32644531 3.62294922 -0.32644531 3.62294922 -1.6796875 3.23828125 C-7.77358602 2.37668786 -13.48469751 5.16556337 -19.125 7.1875 C-21.43957728 7.9950014 -23.75468101 8.80099542 -26.0703125 9.60546875 C-27.21145508 10.00556152 -28.35259766 10.4056543 -29.52832031 10.81787109 C-34.03923674 12.35386669 -38.58893873 13.73947231 -43.15576172 15.09887695 C-45.8464585 15.95135436 -48.43645363 16.81706647 -51 18 C-51.33 18.66 -51.66 19.32 -52 20 C-51.75927734 18.15380859 -51.75927734 18.15380859 -51 16 C-44.0398504 10.80531432 -34.56183262 8.79763414 -26.375 6.375 C-23.83994404 5.61589371 -21.30665594 4.85118057 -18.7734375 4.0859375 C-17.59491211 3.73241211 -16.41638672 3.37888672 -15.20214844 3.01464844 C-12.52363475 2.16592147 -9.95091835 1.22377213 -7.3515625 0.1640625 C-3.95216998 -1.01661229 -3.22064962 -1.03022144 0 0 Z " fill="#E7E9E9" transform="translate(67,60)"/>
<path d="M0 0 C0.66 0 1.32 0 2 0 C1.89453125 1.828125 1.89453125 1.828125 1 4 C-1.80078125 5.484375 -1.80078125 5.484375 -5.3125 6.75 C-6.46363281 7.17796875 -7.61476563 7.6059375 -8.80078125 8.046875 C-12 9 -12 9 -16 9 C-16 9.66 -16 10.32 -16 11 C-15.01 10.67 -14.02 10.34 -13 10 C-10.50732972 9.8780605 -8.05488198 9.81488963 -5.5625 9.8125 C-4.24378906 9.79832031 -2.92507812 9.78414062 -1.56640625 9.76953125 C2 10 2 10 6 12 C-3.9 12 -13.8 12 -24 12 C-23 9 -23 9 -21.31347656 8.12451172 C-20.59643555 7.89521973 -19.87939453 7.66592773 -19.140625 7.4296875 C-18.35429688 7.17316406 -17.56796875 6.91664062 -16.7578125 6.65234375 C-15.93023437 6.39582031 -15.10265625 6.13929687 -14.25 5.875 C-13.43789062 5.61074219 -12.62578125 5.34648438 -11.7890625 5.07421875 C-7.88848207 3.82272959 -4.04939329 2.67489888 0 2 C0 1.34 0 0.68 0 0 Z " fill="#F2F3F4" transform="translate(99,82)"/>
<path d="M0 0 C4.96682232 -0.29216602 8.10349334 -0.24708889 12 3 C15.08442886 7.93210605 15.46411228 11.86612357 15.375 17.5 C15.38660156 18.23347656 15.39820313 18.96695313 15.41015625 19.72265625 C15.37954158 25.42718962 14.23072229 29.76927771 10.0625 33.9375 C8 35 8 35 5.75 34.6875 C5.1725 34.460625 4.595 34.23375 4 34 C4.94875 33.401875 5.8975 32.80375 6.875 32.1875 C10.13964197 30.18437474 10.13964197 30.18437474 12 27 C12.42553704 23.86842566 12.32429029 20.71994034 12.3125 17.5625 C12.32861328 16.70333984 12.34472656 15.84417969 12.36132812 14.95898438 C12.3652761 10.06626347 12.3652761 10.06626347 10.7734375 5.51171875 C8.68141405 3.72843004 6.94721715 3.01368613 4.3125 2.25 C3.50425781 2.00765625 2.69601563 1.7653125 1.86328125 1.515625 C1.24839844 1.34546875 0.63351563 1.1753125 0 1 C0 0.67 0 0.34 0 0 Z " fill="#DDE0E0" transform="translate(239,93)"/>
<path d="M0 0 C2.54328558 2.54328558 5.08031692 5.08423481 7.5625 7.6875 C11.93504143 11.83580853 15.48912343 12.3137123 21.390625 12.4140625 C22.44754547 12.44311172 22.44754547 12.44311172 23.52581787 12.4727478 C25.76709039 12.53232735 28.00841489 12.57884123 30.25 12.625 C31.77345938 12.66319979 33.29689762 12.70225269 34.8203125 12.7421875 C38.54668106 12.83801018 42.27320835 12.92212107 46 13 C46 13.33 46 13.66 46 14 C41.44684078 14.09958121 36.89432848 14.17179985 32.34033203 14.21972656 C30.79432113 14.23972503 29.24838473 14.26693331 27.70263672 14.30175781 C10.08367388 14.68848779 10.08367388 14.68848779 3.4296875 8.55175781 C0.60891327 5.49013879 0 4.2607337 0 0 Z " fill="#F3F4F4" transform="translate(30,239)"/>
<path d="M0 0 C1.32 0.66 2.64 1.32 4 2 C4 2.66 4 3.32 4 4 C3.01 4.33 2.02 4.66 1 5 C0.67 5.66 0.34 6.32 0 7 C-3.57264801 8.58234929 -7.29523966 9.76339053 -11 11 C-11.68449219 11.23203125 -12.36898437 11.4640625 -13.07421875 11.703125 C-16.79194056 12.87274534 -20.11245627 13.36163197 -24 13 C-24.66 12.34 -25.32 11.68 -26 11 C-25.36835938 10.91363281 -24.73671875 10.82726563 -24.0859375 10.73828125 C-18.35376798 9.83798373 -12.8698977 8.48663222 -7.375 6.625 C-5.59222656 6.02558594 -5.59222656 6.02558594 -3.7734375 5.4140625 C-0.85103126 4.30181048 -0.85103126 4.30181048 -0.1015625 1.8359375 C-0.06804687 1.23007812 -0.03453125 0.62421875 0 0 Z " fill="#D0D5D5" transform="translate(202,46)"/>
<path d="M0 0 C0 0.33 0 0.66 0 1 C-9.27248414 3.93967457 -18.58713718 6.55239528 -28 9 C-28 9.66 -28 10.32 -28 11 C-28.99 10.67 -29.98 10.34 -31 10 C-30 7 -30 7 -28.1015625 6.0168457 C-25.40512567 5.10110981 -22.70903312 4.19046134 -20 3.3125 C-19.07832031 2.99216797 -18.15664062 2.67183594 -17.20703125 2.34179688 C-11.23324479 0.36598175 -6.28583617 -0.34134151 0 0 Z " fill="#D9DDDD" transform="translate(118,44)"/>
<path d="M0 0 C0.33 0.99 0.66 1.98 1 3 C0.67 3.66 0.34 4.32 0 5 C-0.36870715 10.65350956 0.59481411 15.87625392 1.66015625 21.42578125 C2 24 2 24 1 26 C-2.06362888 18.99741971 -4.03958308 11.66880853 -3 4 C-1.5 1.4375 -1.5 1.4375 0 0 Z " fill="#F1F2F2" transform="translate(14,78)"/>
<path d="M0 0 C-4.08804062 4.86937262 -11.4282364 6.64662917 -17.56640625 7.25390625 C-19.37957765 7.25066265 -21.19216643 7.13906412 -23 7 C-18.91166708 4.88615254 -14.70363446 3.35584702 -10.375 1.8125 C-9.59898437 1.52697266 -8.82296875 1.24144531 -8.0234375 0.94726562 C-2.23544358 -1.11772179 -2.23544358 -1.11772179 0 0 Z " fill="#D9DDDD" transform="translate(147,69)"/>
<path d="M0 0 C0 0.33 0 0.66 0 1 C-2.64 1 -5.28 1 -8 1 C-8.0825 1.61875 -8.165 2.2375 -8.25 2.875 C-9 5 -9 5 -11.0625 6.25 C-11.701875 6.4975 -12.34125 6.745 -13 7 C-11.68 5.02 -10.36 3.04 -9 1 C-18.57 1 -28.14 1 -38 1 C-38 0.67 -38 0.34 -38 0 C-33.54210408 -0.19902127 -29.08368537 -0.38210364 -24.625 -0.5625 C-22.74748047 -0.64661133 -22.74748047 -0.64661133 -20.83203125 -0.73242188 C-13.78281236 -1.00922366 -6.99322891 -0.97848067 0 0 Z " fill="#E8EAEB" transform="translate(168,93)"/>
<path d="M0 0 C0.66 0 1.32 0 2 0 C1.8671875 1.83203125 1.8671875 1.83203125 1 4 C-6.43388982 8.21708429 -14.54031291 9.81351391 -23 10 C-19.68640634 7.79093756 -16.37244279 6.65650407 -12.625 5.4375 C-11.965 5.21642578 -11.305 4.99535156 -10.625 4.76757812 C-7.10970592 3.60865149 -3.64910653 2.62697004 0 2 C0 1.34 0 0.68 0 0 Z " fill="#DFE2E2" transform="translate(99,82)"/>
<path d="M0 0 C0 0.33 0 0.66 0 1 C-1.78857422 1.50660156 -1.78857422 1.50660156 -3.61328125 2.0234375 C-5.17976618 2.47368467 -6.74616815 2.92422058 -8.3125 3.375 C-9.49102539 3.70757812 -9.49102539 3.70757812 -10.69335938 4.046875 C-11.8293457 4.37558594 -11.8293457 4.37558594 -12.98828125 4.7109375 C-13.68477783 4.90993652 -14.38127441 5.10893555 -15.09887695 5.31396484 C-17.2849698 6.01712196 -17.2849698 6.01712196 -20 8 C-20.99 8 -21.98 8 -23 8 C-23 7.01 -23 6.02 -23 5 C-7.25512528 -0.74031891 -7.25512528 -0.74031891 0 0 Z " fill="#E0E3E3" transform="translate(163,29)"/>
<path d="M0 0 C0.66 0.66 1.32 1.32 2 2 C1.74618574 7.16089003 1.21090192 10.80112826 -2 15 C-5.22791555 17.1519437 -6.28400809 17.20086443 -10 17 C-9.4225 16.5875 -8.845 16.175 -8.25 15.75 C-7.5075 15.1725 -6.765 14.595 -6 14 C-5.29875 13.484375 -4.5975 12.96875 -3.875 12.4375 C-1.01485094 8.71930622 -0.66250411 4.5677915 0 0 Z " fill="#D1D4D5" transform="translate(246,23)"/>
<path d="M0 0 C4.8895657 -0.48895657 8.05652514 -0.55909621 12.375 2 C15.33800439 5.38629073 17.17197145 8.55283544 18 13 C17.67 13.99 17.34 14.98 17 16 C16.63648438 15.09507813 16.63648438 15.09507813 16.265625 14.171875 C13.73244216 7.76687106 13.73244216 7.76687106 9 3 C6.03059595 2.10969341 3.05813718 1.49662057 0 1 C0 0.67 0 0.34 0 0 Z " fill="#DDDFE0" transform="translate(229,7)"/>
<path d="M0 0 C0.33 0 0.66 0 1 0 C0.62948535 6.17524411 -0.81381768 8.71414667 -5 13 C-8.22791555 15.1519437 -9.28400809 15.20086443 -13 15 C-12.46375 14.608125 -11.9275 14.21625 -11.375 13.8125 C-10.199375 12.9153125 -10.199375 12.9153125 -9 12 C-7.4840625 10.88625 -7.4840625 10.88625 -5.9375 9.75 C-2.58020383 6.97066874 -1.43523717 4.06650532 0 0 Z " fill="#D8DADB" transform="translate(242,236)"/>
<path d="M0 0 C0.33 1.32 0.66 2.64 1 4 C-0.5778125 3.690625 -0.5778125 3.690625 -2.1875 3.375 C-6.07376555 2.99274437 -7.57229377 3.38136094 -11 5 C-11.99 5 -12.98 5 -14 5 C-14 4.34 -14 3.68 -14 3 C-12.42274653 2.29866401 -10.83788667 1.614417 -9.25 0.9375 C-7.92742188 0.36322266 -7.92742188 0.36322266 -6.578125 -0.22265625 C-3.84743691 -1.04600008 -2.63098653 -0.9773992 0 0 Z " fill="#DADEDF" transform="translate(67,60)"/>
<path d="M0 0 C-3.38106282 3.38106282 -7.65712203 3.89865072 -12.3125 4.25 C-15 4 -15 4 -17 2 C-5.47835991 -0.29612756 -5.47835991 -0.29612756 0 0 Z " fill="#CED2D3" transform="translate(193,55)"/>
<path d="M0 0 C0 0.33 0 0.66 0 1 C-6.11404596 2.85743168 -11.58518742 4.42765417 -18 4 C-12.09876585 0.0658439 -6.88057626 -0.27522305 0 0 Z " fill="#E2E5E6" transform="translate(118,44)"/>
<path d="M0 0 C-0.66 0.66 -1.32 1.32 -2 2 C-2 3.32 -2 4.64 -2 6 C-4.9375 5.1875 -4.9375 5.1875 -8 4 C-8.33 3.01 -8.66 2.02 -9 1 C-2.25 -1.125 -2.25 -1.125 0 0 Z " fill="#4D5B62" transform="translate(203,17)"/>
<path d="M0 0 C0.99 0.33 1.98 0.66 3 1 C2.071875 2.1446875 2.071875 2.1446875 1.125 3.3125 C-1.05597052 5.99625809 -1.05597052 5.99625809 -3 9 C-3.66 9 -4.32 9 -5 9 C-5.33 9.66 -5.66 10.32 -6 11 C-6.33 10.34 -6.66 9.68 -7 9 C-4.69 6.03 -2.38 3.06 0 0 Z " fill="#3B434A" transform="translate(119,108)"/>
<path d="M0 0 C4.99754367 -0.29397316 7.98418348 -0.0979156 12 3 C12.99 4.485 12.99 4.485 14 6 C13.67 6.99 13.34 7.98 13 9 C12.525625 8.236875 12.05125 7.47375 11.5625 6.6875 C8.15513193 3.11391885 4.68574293 2.23150936 0 1 C0 0.67 0 0.34 0 0 Z " fill="#E7E8E8" transform="translate(239,93)"/>
<path d="M0 0 C0.66 0.33 1.32 0.66 2 1 C1.01 1.66 0.02 2.32 -1 3 C-0.67 4.65 -0.34 6.3 0 8 C-3.65316671 6.75023244 -4.78065836 6.32901247 -7 3 C-4.69631264 1.93347808 -2.35981813 0.93578995 0 0 Z " fill="#4E5B63" transform="translate(149,33)"/>
<path d="M0 0 C-1.81817001 2.31459868 -2.75615543 2.95377187 -5.69921875 3.51171875 C-7.17841797 3.59873047 -7.17841797 3.59873047 -8.6875 3.6875 C-10.17830078 3.78611328 -10.17830078 3.78611328 -11.69921875 3.88671875 C-12.45847656 3.92410156 -13.21773438 3.96148437 -14 4 C-11.37350692 2.24900461 -9.38191413 1.30690675 -6.4375 0.3125 C-5.65246094 0.04050781 -4.86742188 -0.23148437 -4.05859375 -0.51171875 C-2 -1 -2 -1 0 0 Z " fill="#BEC3C4" transform="translate(90,88)"/>
<path d="M0 0 C0 0.66 0 1.32 0 2 C-3.37097383 3.49821059 -5.20442119 4 -9 4 C-9.33 4.66 -9.66 5.32 -10 6 C-9.875 4.125 -9.875 4.125 -9 2 C-5.82254537 0.61849799 -3.46877176 0 0 0 Z " fill="#EAEDED" transform="translate(203,14)"/>
<path d="M0 0 C-1 1.5 -1 1.5 -3 3 C-5.71846235 3.27345479 -8.25677199 3.13491285 -11 3 C-3.71428571 -1.85714286 -3.71428571 -1.85714286 0 0 Z " fill="#B9BFC0" transform="translate(147,69)"/>
<path d="M0 0 C1.32 0.66 2.64 1.32 4 2 C-2.625 5.125 -2.625 5.125 -6 4 C-5.34 3.34 -4.68 2.68 -4 2 C-2.68 2 -1.36 2 0 2 C0 1.34 0 0.68 0 0 Z " fill="#DEE0E0" transform="translate(152,65)"/>
<path d="M0 0 C4.875 4.625 4.875 4.625 6 8 C5.01 8 4.02 8 3 8 C0.19744677 5.0936485 0 4.21174952 0 0 Z " fill="#DBDEDF" transform="translate(30,239)"/>
<path d="M0 0 C0.33 0.99 0.66 1.98 1 3 C-0.21484375 4.82421875 -0.21484375 4.82421875 -1.9375 6.6875 C-2.50339844 7.31011719 -3.06929688 7.93273437 -3.65234375 8.57421875 C-4.09707031 9.04472656 -4.54179688 9.51523438 -5 10 C-5.66 9.67 -6.32 9.34 -7 9 C-4.69 6.03 -2.38 3.06 0 0 Z " fill="#D3DBDE" transform="translate(100,101)"/>
<path d="M0 0 C-1.28519565 2.86697492 -2.57129254 4.97607712 -5 7 C-5.66 7 -6.32 7 -7 7 C-4.60526316 0 -4.60526316 0 0 0 Z " fill="#3C474C" transform="translate(21,76)"/>
<path d="M0 0 C0.94875 0.04125 1.8975 0.0825 2.875 0.125 C3.205 0.785 3.535 1.445 3.875 2.125 C1.565 2.785 -0.745 3.445 -3.125 4.125 C-3.785 3.465 -4.445 2.805 -5.125 2.125 C-3.125 0.125 -3.125 0.125 0 0 Z " fill="#475356" transform="translate(241.125,93.875)"/>
<path d="M0 0 C0.66 0.33 1.32 0.66 2 1 C1.67 2.65 1.34 4.3 1 6 C-0.32 5.34 -1.64 4.68 -3 4 C-3 3.01 -3 2.02 -3 1 C-2.01 0.67 -1.02 0.34 0 0 Z " fill="#535F66" transform="translate(93,51)"/>
<path d="M0 0 C-4.41880243 2.94586829 -6.67767339 3.0985616 -12 3 C-7.78372195 0.18914797 -4.97048208 -0.11045516 0 0 Z " fill="#EEF0F0" transform="translate(170,26)"/>
<path d="M0 0 C1.32 0.66 2.64 1.32 4 2 C4 2.66 4 3.32 4 4 C1.64561267 5.42944945 0.51967567 6.08661261 -2.25 5.625 C-2.8275 5.41875 -3.405 5.2125 -4 5 C-3.01 4.67 -2.02 4.34 -1 4 C-0.26676204 1.98491642 -0.26676204 1.98491642 0 0 Z " fill="#828B8C" transform="translate(202,46)"/>
</svg>
